<?xml version="1.0" standalone="no"?>
<!DOCTYPE svg PUBLIC "-//W3C//DTD SVG 20010904//EN"
 "http://www.w3.org/TR/2001/REC-SVG-20010904/DTD/svg10.dtd">
<svg version="1.0" xmlns="http://www.w3.org/2000/svg"
 width="42.000000pt" height="42.000000pt" viewBox="0 0 42.000000 42.000000"
 preserveAspectRatio="xMidYMid meet">

<g transform="translate(0.000000,42.000000) scale(0.100000,-0.100000)"
fill="#000000" stroke="none">
<path d="M304 366 c-18 -14 -18 -15 10 -45 35 -36 42 -38 55 -12 8 14 4 24
-17 45 -25 23 -30 25 -48 12z m50 -28 c5 -9 7 -20 3 -24 -8 -8 -47 24 -47 38
0 15 32 5 44 -14z"/>
<path d="M270 327 c0 -7 13 -26 29 -41 39 -37 53 -15 15 25 -30 31 -44 36 -44
16z"/>
<path d="M167 226 c-43 -46 -86 -105 -96 -130 l-20 -45 57 25 c56 24 202 154
202 180 0 13 -42 54 -57 54 -5 0 -44 -38 -86 -84z m-36 -102 c11 -14 10 -18
-6 -30 -18 -13 -45 -19 -45 -9 0 11 24 55 30 55 4 0 14 -7 21 -16z"/>
</g>
</svg>
