<?xml version="1.0" standalone="no"?>
<!DOCTYPE svg PUBLIC "-//W3C//DTD SVG 20010904//EN"
 "http://www.w3.org/TR/2001/REC-SVG-20010904/DTD/svg10.dtd">
<svg version="1.0" xmlns="http://www.w3.org/2000/svg"
 width="42.000000pt" height="42.000000pt" viewBox="0 0 42.000000 42.000000"
 preserveAspectRatio="xMidYMid meet">

<g transform="translate(0.000000,42.000000) scale(0.100000,-0.100000)"
fill="#000000" stroke="none">
<path d="M245 386 c-16 -7 -39 -23 -49 -35 -11 -11 -29 -21 -40 -21 -12 0 -27
-4 -34 -9 -22 -14 -30 -72 -16 -114 17 -48 11 -62 -35 -80 -45 -18 -59 -34
-67 -75 l-6 -32 161 0 161 0 0 26 c0 39 -16 60 -60 78 -42 17 -56 35 -47 60
10 25 67 -3 67 -31 0 -13 3 -23 6 -23 11 0 109 92 121 114 29 51 1 115 -63
142 -41 17 -60 17 -99 0z m128 -47 c40 -44 36 -73 -20 -125 -36 -33 -50 -40
-55 -29 -5 7 -21 16 -37 20 -26 6 -30 11 -36 56 -4 27 -11 52 -17 55 -11 7 19
43 47 55 35 15 88 0 118 -32z"/>
<path d="M240 290 c0 -5 5 -10 10 -10 6 0 10 5 10 10 0 6 -4 10 -10 10 -5 0
-10 -4 -10 -10z"/>
<path d="M280 290 c0 -5 7 -10 15 -10 8 0 15 5 15 10 0 6 -7 10 -15 10 -8 0
-15 -4 -15 -10z"/>
<path d="M330 290 c0 -5 5 -10 10 -10 6 0 10 5 10 10 0 6 -4 10 -10 10 -5 0
-10 -4 -10 -10z"/>
</g>
</svg>
