<?xml version="1.0" standalone="no"?>
<!DOCTYPE svg PUBLIC "-//W3C//DTD SVG 20010904//EN"
 "http://www.w3.org/TR/2001/REC-SVG-20010904/DTD/svg10.dtd">
<svg version="1.0" xmlns="http://www.w3.org/2000/svg"
 width="42.000000pt" height="42.000000pt" viewBox="0 0 42.000000 42.000000"
 preserveAspectRatio="xMidYMid meet">

<g transform="translate(0.000000,42.000000) scale(0.100000,-0.100000)"
fill="#000000" stroke="none">
<path d="M163 399 c-37 -23 -42 -36 -40 -101 2 -45 1 -46 -23 -42 -68 14 -65
20 -68 -100 -2 -78 1 -112 9 -117 7 -4 39 -11 71 -14 32 -4 61 -11 64 -16 7
-12 61 -12 68 0 3 5 32 12 64 16 32 3 64 10 71 14 8 5 11 39 9 117 -3 120 1
114 -68 101 -24 -5 -25 -4 -27 56 -3 52 -7 66 -29 85 -31 27 -59 28 -101 1z
m62 -70 c51 -13 65 -37 38 -68 -23 -28 -82 -28 -106 -1 -21 25 -21 30 -1 58
18 26 13 25 69 11z m-5 -209 c0 -60 -4 -100 -10 -100 -6 0 -10 40 -10 100 0
60 4 100 10 100 6 0 10 -40 10 -100z m135 81 c-15 -14 -105 -25 -105 -13 0 11
29 18 85 21 18 0 25 -3 20 -8z m5 -50 c0 -8 -56 -21 -94 -21 -27 0 -8 17 24
23 44 8 70 7 70 -2z"/>
</g>
</svg>
